<svg id="Layer_1" data-name="Layer 1" xmlns="http://www.w3.org/2000/svg" viewBox="0 0 463.17 536.05"><defs><style>.cls-1{fill:#00ff7a;}</style></defs><path class="cls-1" d="M248.23,524.67c-1.53,0-3.17-.35-4.58.06-7,2-12.94-1.15-19.08-3.45-11.31-4.22-21.66-10.29-32-16.39a15.71,15.71,0,0,0-4.78-1.36c-3.67-.73-7.39-1.18-11-2.06-4.53-1.1-7.58-4.28-10.37-7.84a135.52,135.52,0,0,0-9.18-10.8c-2.59-2.65-5.81-3.8-9.69-2.32-5,1.91-10.11,3.58-15.57,3.78-8.18.29-13.87-3.4-17.74-10.49-3.43-6.28.3-12.29,7-13.54,5.42-1,11-1.49,16.35-2.56a28.14,28.14,0,0,0,7.31-2.89c2.48-1.3,2.85-3.95,2.66-6.38-.07-.89-1.48-2.1-2.51-2.41-4.08-1.21-8.27-2.06-12.37-3.17-3.4-.93-7-1.61-10.08-3.17-7.42-3.73-10.21-14.21-1.14-20.81,4.89-3.57,10.32-3,15.75-2s9.73,4.74,14.45,7.42A98.46,98.46,0,0,0,165,430.82c3,1.16,4.53-.71,4.32-4-.55-8.51-3.73-16.12-7.59-23.56-1.82-3.5-2.91-7.13-2.13-11.27,1.86-9.94,12.27-11.94,18.58-7.2,1.83,1.37,3.15,3.45,4.59,5.29a27.84,27.84,0,0,1,1.94,3.5c.75-1.46,1.34-2.51,1.85-3.59,6.14-13.16,14.06-25.07,24.58-35.17,6.86-3.32,7.18-9.92,8.15-16.2a9,9,0,0,1,.77-1.93,10.17,10.17,0,0,1,1.83,1c1.57,1.36,3.12,2.74,4.58,4.21a2.78,2.78,0,0,0,3.58.53c2.06-1,4.25-1.73,6.2-2.88a7.66,7.66,0,0,0,3-3,166.46,166.46,0,0,1,14.57-26c1.3-1.85,2.71-3.62,4.44-5.92.8,1.6,1.37,2.65,1.88,3.74,3.47,7.57,7.12,15.06,10.33,22.74,1.84,4.4,5.6,3.76,8.93,4.14,13.44,1.54,26.61,4.14,39.17,9.34a77.8,77.8,0,0,1,19.71,11.33c1.52,1.23,2.79,1.08,4.42.22,9.5-5,19-10,28.6-14.91,2.88-1.46,5.95-2.55,9-3.73a19.84,19.84,0,0,1,3.14-.61c-1.22,4.13-2.5,7.72-3.32,11.41-1.84,8.34-3.9,16.68-5.06,25.13a216.2,216.2,0,0,0-1.41,41.64c.89,15.89,3.83,31.34,10.65,45.85a61.71,61.71,0,0,0,4,6.88c.88,1.36.83,2.31-.51,3.36-8.7,6.84-17.35,13.76-26.06,20.59-2.81,2.21-2.92,3.79,0,6.08,1.79,1.43,3.73,2.66,5.56,4a22.46,22.46,0,0,1,2.13,2.24c-4.49.53-8.24,1.09-12,1.39-5.45.42-10.92.55-16.36,1-1.59.14-3.12,1-4.68,1.52l0,.81,7,2.06-.07.84a54.17,54.17,0,0,1-5.9.78c-9.07.26-17.07,4-25.19,7.45-3.45,1.46-7,2.74-10.45,4.14a5.45,5.45,0,0,0-1.1.79,4.17,4.17,0,0,0,1.09.87,57.17,57.17,0,0,1,19.79,11.51,3.88,3.88,0,0,0,2.24.75c11.8.81,23.06,3.36,33.1,10a2.59,2.59,0,0,0,2.46-.23c2.83-2.89,5.65-5.82,8.17-9A64.89,64.89,0,0,0,378,518.52c3.71-11.2,7.14-22.5,11.1-33.61a119.7,119.7,0,0,1,20.48-36.29c7.59-9.21,17.44-14.91,28.36-19a83.62,83.62,0,0,1,27.7-5.08c7.79-.19,15.09,1,22,4.64,7.62,4,11.57,13.36,8.64,20.67-1.77,4.44-5.45,7.07-9.32,9.46-5.42,3.35-11.58,4.63-17.62,6.23-6.82,1.8-13.67,3.52-20.47,5.44-6,1.68-10.78,5.38-15.24,9.53a81.26,81.26,0,0,0-16.51,22.13c-4.71,9-8.82,18.35-13.33,27.48-6.29,12.72-13.48,24.85-24.16,34.48a77.33,77.33,0,0,1-7.63,5.67c-2,1.41-2.17,5.79.06,6.7,8.56,3.52,16.8,8.15,26.38,8.38a11.81,11.81,0,0,0,5.34-1c14.19-7,26.64-16.46,37.93-27.48a12.52,12.52,0,0,0,2.63-3.52c6-13,18.29-15.22,29.48-11.85,9.59,2.89,17,9.07,23.62,16.32a123.85,123.85,0,0,1,24.26,40.7c2.31,6.22,4.29,12.62,4.26,19.38,0,5.51-.71,11-3.15,16-3.55,7.23-9.68,11.63-17.26,13.9a61.84,61.84,0,0,1-12.5,2.64c-10.28.84-18.28-3.64-24.53-11.6a54.8,54.8,0,0,1-9.29-18.73c-.65-2.23-1.6-4.38-2.43-6.61-5.43,3.2-10.47,6.24-15.59,9.16a118.44,118.44,0,0,1-25.09,11.06,33.51,33.51,0,0,1-22.34-1,252.24,252.24,0,0,1-40.22-20.22c-1.46-.91-2.87-1.88-4.63-3l4.11-2.52-.17-.58a16.07,16.07,0,0,0-2.09.4,86.33,86.33,0,0,1-23.55,4.7c-5.15.25-10.29,1.1-15.44,1.25-8,.23-16,.07-24,.12-13.61.07-27.22.46-40.67,2.66a43.27,43.27,0,0,0-18.4,7.54c-10.28,7.4-20.44,15-30.84,22.23a30.29,30.29,0,0,0-8.22,8.4c-5.4,8.18-13.93,11.31-23.26,9.51-12.53-2.42-22.1-9.27-30.05-18.92a140.86,140.86,0,0,1-21.93-36.78c-3.06-7.54-5.26-15.38-5-23.66.07-1.7.31-3.39.48-5.08.15-1.48,1.06-1.72,2.36-1.53,4.14.63,8.29,1.16,12.43,1.82a5.22,5.22,0,0,1,2.37,1c7.13,5.64,15.54,7.54,24.29,7.67,5.72.09,11.46-.83,17.17-1.47,1.48-.17,2.21.15,2.66,1.51,1.19,3.61,2.43,7.21,3.75,11.12a31.24,31.24,0,0,0,3-1.49,143.4,143.4,0,0,1,40.23-16.73,139.69,139.69,0,0,1,42-3.79c4.72.25,9.4,1.05,14.11,1.55,1.07.11,2.16,0,3.76,0a6.32,6.32,0,0,0-.93-.76c-5.94-2.29-10-6.76-13.43-11.85-1.59-2.36-1.35-2.61,1.44-3.26a4.78,4.78,0,0,0,1-.37c.09-.05.1-.25.26-.7-3.33.25-6.53.42-9.71.73-5.36.51-10.72,1.1-16.07,1.67q-14,1.47-27.94,3c-4.4.47-8.81.89-13.19,1.47a3.09,3.09,0,0,0-2,1.32,15.72,15.72,0,0,1-6.84,6A93.47,93.47,0,0,1,168,583.83c-10.7,2.29-21.42,3.46-31.81-1.38a36.83,36.83,0,0,1-7.48-4.69c8.42-.57,16.71-.68,24.29-4.36l-.16-.84c-1.9.35-3.81.67-5.7,1.06a93.3,93.3,0,0,1-24,2.14c-6.67-.36-13.24-1.16-18.8-5.47-4.2-3.25-5.56-7.72-3.66-13a37.75,37.75,0,0,0,17.33,4.2c6,0,12-.41,17.86-2.38a55.77,55.77,0,0,0-6.72,0c-8.55,1.05-16.94.62-25.06-2.43-4.55-1.71-7.42-5.19-7.64-10-.23-5,2.39-8.77,7-11.19,3.59-1.92,7.46-2.2,11.35-2.4,4.58-.24,9.19-.12,13.75-.5a99.47,99.47,0,0,0,12.64-1.84,12.49,12.49,0,0,0,7.67-5.31,6.78,6.78,0,0,0,.3-7.35,54.8,54.8,0,0,0-3.23-5.28c-3.95-5.87-5.67-12.23-4.35-19.28a13.4,13.4,0,0,1,4.32-7.79c3.43-3.05,8-2.88,11,.71,2.55,3.15,4.69,6.66,7.31,9.75a132.79,132.79,0,0,0,10.42,11.18c5.72,5.33,8.37,12,9.61,19.48.59,3.53.67,3.7,4.24,3.52,12.55-.63,25.1-1.26,37.64-2.16,6.69-.48,13.34-1.49,20-2.28a18.24,18.24,0,0,0,2.27-.54ZM268,471.82c1.74-.15,3.5-.28,5.24-.47,6.79-.75,13.47-1.62,19.6-5.21A64.67,64.67,0,0,0,309.94,452c6.93-8.22,11.07-17.86,13.57-28.17,1.4-5.81,2.75-11.84,2.7-17.76a55.59,55.59,0,0,0-4.71-22.7C316.8,373,310,364.4,300,358.68a33.43,33.43,0,0,0-21.05-4.2c-6.06.75-12,2.46-16.95,6.23-4.2,3.21-8.74,6.28-12,10.31A103,103,0,0,0,233,401.67a86.06,86.06,0,0,0-5.08,23.6,74.23,74.23,0,0,0,.76,15.9A32.28,32.28,0,0,0,237,458.44c3.38,3.61,6.93,7,11.44,9.24C254.6,470.71,261.19,471.77,268,471.82ZM295,522.48a8.43,8.43,0,0,1,1.76-1.29c.57-.25,1.36,0,1.95-.22,5.59-2.16,11.26-4.14,16.69-6.65a36,36,0,0,0,11.4-8.18c1.09-1.17,2.76-1.53,2.81-3.75,0-1.65,1.37-3.23,1.74-4.93,1.19-5.46.61-10.61-3.28-15a6.36,6.36,0,0,1-.57-.94,19.8,19.8,0,0,0-9.5-8.18,35.19,35.19,0,0,0-12.37-2c-4.74-.05-9.49.81-14.23,1.33-5.25.57-10.49,1.54-15.75,1.7a87.93,87.93,0,0,1-14.94-.91,44.4,44.4,0,0,1-18.87-7.54C233.41,460.19,229,451.66,227,442c-1.19-5.73-1.23-11.71-1.83-17.57-.1-1-.4-2-.73-3.52-1.05,1.11-1.62,1.65-2.13,2.26-2.32,2.77-4.48,5.7-7,8.32a52.11,52.11,0,0,1-17.12,11.91c-2.06.9-2.09,1.43-.32,2.77,2.06,1.55,4.19,3,6.22,4.61,4.32,3.42,8.28,7.09,9.31,13,1.28,7.29-2.83,14-9.81,15.55a37.57,37.57,0,0,1-8.09.45c-2.38,0-2.88.47-1.77,2.61a43.32,43.32,0,0,0,3.46,5.36c4.21,5.75,8.78,11.19,14.52,15.49a95.43,95.43,0,0,0,11.5,7.82c7.48,4,15.1,7.82,23.64,9.29,5.2.9,10.3,2.3,15.45,3.47,1.24.28,2.52.89,3.71.76,3.76-.42,7.48-1.21,11.23-1.69,4.49-.57,9,1.11,13.52-.36a6.29,6.29,0,0,1,1.93-.41A14,14,0,0,1,295,522.48Zm219,65.73a33.43,33.43,0,0,0-1.14-3.22,92,92,0,0,0-11.08-17.83c-4.86-6-9.5-12.21-15.75-16.91-5.25-4-10.91-6.91-17.73-7-3.37-.06-6.39.72-8.59,3.28-3.91,4.55-4.91,10.29-5,15.93-.06,4,1.15,8.14,2.35,12,2.56,8.28,5.42,16.48,8.31,24.65,1,2.81,2.45,5.44,3.7,8.16l.64,0a24.63,24.63,0,0,0,1.45-3.08c1.32-4.24,6.7-8,10.47-8.46,5.34-.68,9.16,2.07,13,5.06,1.07.84,2.25,1.55,3.67,2.52l.64-5.73.59.14,1,10c-3.34-2.89-6.38-6-9.91-8.45-5.1-3.51-14.19-1.51-16.69,3.42s-3.24,9.76-.36,14.79c1,1.72,1.7,3.61,2.57,5.4a40.31,40.31,0,0,0,12.77,15.87c4.71,3.36,9.53,5.63,15.68,5.19a16.68,16.68,0,0,0,11.82-5.54c6-6.53,6.88-14.53,6.13-22.76a67.2,67.2,0,0,0-2.94-13c-1-3.44-2.07-7.14-4.16-9.94-3.19-4.28-8.3-6-12.8-1.81a3.89,3.89,0,0,1-.86.45C504.52,586.68,508.79,586.82,514,588.21ZM223.1,415.48l.42.4a5.78,5.78,0,0,0,1.13-1.26c2-4.34,4.1-8.67,6-13.07a49.63,49.63,0,0,0,2.83-7.84c1.57-6.55,2.9-13.16,4.29-19.75a29,29,0,0,0-.35-14.85c-1.26-4-3.81-7.11-8.42-7.83-5.56-.87-10.09,1.49-14.17,4.73-8.13,6.45-14.26,14.71-19.63,23.46a121.08,121.08,0,0,0-11.48,25.27c-2.65,8-4.42,16.08-3.89,24.51a14.51,14.51,0,0,0,1.92,6.69c2.91,4.56,9.55,6.88,14.85,5.48,2.87-.75,5.71-1.78,7.71-4.22-2.34-2.77-3-4.83-2.74-7.06a38,38,0,0,1,5.61-15.77c2.64-4.11,5.46-8.07,9.63-10.81,1.6-1.06,3.37-1.71,5.19-.72a4.59,4.59,0,0,1,2.3,4.9C224,410.33,223.51,412.9,223.1,415.48Zm-51.22,26.08a4.51,4.51,0,0,0-1.63,0,12.35,12.35,0,0,0-6.59,5.31c-2.66,4.37-1.76,15.09,1.55,19a27.11,27.11,0,0,0,12.08,8.61A17.92,17.92,0,0,0,180,475l.16-.59-1.12-.93c-2.83-2.35-5.85-4.51-8.44-7.1-4.81-4.8-5.92-10.83-4-17.09C167.55,446.49,170,444.25,171.88,441.56Zm7.82,39.13-.68.11c-.93,1.83.23,8.39,1.7,9.4a1.09,1.09,0,0,0,1,.09,1.38,1.38,0,0,0,.47-1.1C181.39,486.34,180.53,483.52,179.7,480.69Z" transform="translate(-74.47 -127.56)"/><path class="cls-1" d="M442.17,184.16c-1.27,2.06-2.44,4.19-3.82,6.17-1.84,2.63-3.62,2.95-6.51,1.77a11.67,11.67,0,0,0-4.22-.91c-7.1,0-14.2.19-21.3.06-4.5-.08-5.85-1.65-5.9-6.21-.05-5.25,0-10.5.11-15.76,0-1.83,0-3.05-2.31-3.72-3.66-1.08-4.13-4.17-1.31-6.74,1.42-1.29,3-2.4,4.41-3.69,1.23-1.11,2.34-2.36,3.51-3.55l-.25-.66c-.95-.1-1.9-.22-2.85-.27-2-.11-4-.2-5-2.22a5,5,0,0,1,.74-5.6,1.71,1.71,0,0,0,.33-1.33c-.67-2,.07-3.48,1.53-4.92,2-2,3.85-4.09,5.65-6.24,2.81-3.37,6.38-3,8.63.71a3.31,3.31,0,0,0,2.35,1.38c4.59.11,9.18,0,13.77,0,2.93,0,4.5,1.48,4.46,4s-1.72,4-4.57,4c-1.78,0-3.56-.05-5.33,0a9.86,9.86,0,0,0-2.14.58l.08.78c2,0,4,0,5.94,0,2.13,0,4.09,0,6-1.57,1.06-.85,3.09-.7,4.67-.66,1.89.05,2.54-.69,2.45-2.48a28,28,0,0,1,.06-4c.25-2.71,2-4,5.14-3.91,2.7.07,4.38,1.6,4.48,4.17.05,1.33.08,2.67,0,4-.08,1.52.52,2.21,2.07,2.08a27,27,0,0,1,3.11-.1c4.09.14,6.24,2,6.34,6.1.27,11.47.19,22.94-1.58,34.32a31.86,31.86,0,0,1-1.76,6.81,6,6,0,0,1-6,4.09,67.61,67.61,0,0,1-7.26-.55,3.65,3.65,0,0,1-3.39-3.52c-.09-.86-.28-1.71-.43-2.56,1.73-1.29,3.1-3.1,5.75-2.78s3.22-.23,3.58-2.91c.45-3.37.94-6.74,1.11-10.13.28-5.68.35-11.37.43-17.06,0-.93.19-2.26-1.42-2.27s-1.37,1.22-1.55,2.2c-1.44,7.46-2.73,14.94-4.38,22.35C444.81,177.12,443.34,180.61,442.17,184.16ZM435,175.94a24.1,24.1,0,0,0,1.63-3.87c1.41-6.86,2.72-13.75,4.06-20.62.31-1.59-.3-2.19-1.94-2.45-3.33-.52-6.17,1.08-9.2,1.83-.66.17-1.06,1.43-1.58,2.18a16.3,16.3,0,0,0,2.08.77,6.68,6.68,0,0,0,1.55,0c2.66,0,4.08,1.31,4.05,3.61s-1.53,3.9-4.09,4c-1.7.06-3.42-.07-5.11.09a6.38,6.38,0,0,0-2.05,1l.28.75c2,0,3.95,0,5.92,0,3,0,4.41,1.2,4.52,3.71s-1.33,4-4.32,4.18c-1.63.1-3.27,0-4.88.15-.62.06-1.17.65-1.76,1C427.81,173.87,432.08,171.19,435,175.94ZM432.38,181c-1.53,0-2.86,0-4.17,0a11.24,11.24,0,0,0-2.85.35c-.5.15-.84.82-1.49,1.53C430,183.67,431.54,183.34,432.38,181Zm-16.91-9.52c-2.13,0-3.86-.08-5.57.09-.28,0-.82,1.42-.62,1.68C410.28,174.47,414.34,173.59,415.47,171.49ZM412,184.1l3-1.91-3-.81a.54.54,0,0,0-.22,0c-1.06.17-2.65-.58-2.78,1.13C409,182.91,410.75,183.45,412,184.1ZM409,163l.32.59c1.54,0,3.08.06,4.61,0,.37,0,.69-.59,1-.9-.37-.28-.71-.76-1.09-.8a12.72,12.72,0,0,0-3.32,0C410,162,409.54,162.6,409,163Zm5.64-9.41c2.78.35,3.34-.11,3.56-2.81C416.07,150.43,415.27,151.68,414.66,153.59Zm-8.31-11.69c2.14.35,3.85.95,5.86-.76C410,140.43,408.29,140,406.35,141.9Z" transform="translate(-74.47 -127.56)"/><path class="cls-1" d="M528.09,161.71a25.82,25.82,0,0,0-1,4.07c0,.39.93,1.21,1.49,1.27,4.53.45,5.79,1.6,5.47,6.14a53.27,53.27,0,0,1-1.66,9.35c-1.51,5.92-6,8.15-11.6,8.46a36,36,0,0,1-8.13-.71,3.52,3.52,0,0,1-3.24-4c.3-2.91,1.63-4.48,4.13-4.6a18.87,18.87,0,0,1,4,.34c4.57.77,6.48-.92,6.3-5.93l-2.73-.19c-4.44-.34-5.4-1.69-4.36-6,.48-2-.24-3.13-1.83-2.58a3.72,3.72,0,0,0-1.69,2c-1.75,3.89-3.07,8-5.15,11.69a23,23,0,0,1-11.19,9.74c-2,.85-3.76,1.07-5.62-.36-.47-.37-1.45-.23-2.16-.12-1.43.22-2.82.76-4.25.86-3.47.24-7,.36-10.43.42-4.36.08-6.22-1.73-6.27-6.14-.05-4.81,0-9.62,0-14.42a3.58,3.58,0,0,1,3.84-3.84q7.1-.24,14.2-.51c3-.11,4.81,1.56,4.83,4.68s-.06,6.07-.07,9.11c0,.71.08,1.43.17,2.9a34,34,0,0,0,5-3,23,23,0,0,0,7.1-10.78c.47-1.48.09-2.09-1.48-2-2.55.08-4.62-.37-6-3.12-.45-.9-3.71-1.5-4.63-.82-1.81,1.34-3.65,1.1-5.45,1.24-4.35.32-8.72.39-13.08.49-2.39.07-4-1.19-4.11-3-.14-2.73,1.26-4.26,4.14-4.35,3.92-.13,7.85-.22,11.77-.18,3.41,0,6.48-.29,9-3.18,1.66-1.92,4-3.24,6-4.88a12.26,12.26,0,0,0,1.41-1.7,9.85,9.85,0,0,0-1.76-.4c-3.57,0-7-.51-10.74.07-5.86.92-12,.37-18,.3-2.57,0-3.77-1.45-3.74-3.91,0-3.09,1.17-4.42,3.91-4.5,5.77-.17,11.54-.31,17.31-.45.74,0,1.71-.26,2.18.1,3,2.27,5.91,0,8.85,0,3.1,0,6.21-.12,9.32-.23.15,0,.29-.3.84-.89a16.25,16.25,0,0,0-2.79-.67c-2.57-.1-5.16,0-7.74-.11a3.19,3.19,0,0,1-3.21-3.11c-.17-1.72.26-3.44,2.23-4.14a9.26,9.26,0,0,1,2.33-.63c9.59-.66,19.18-1.32,28.78-1.91,3.5-.21,4.84,1,4.92,4.14.07,2.25-2,4.05-4.74,4.29s-5.59.53-8.38.9a9.12,9.12,0,0,0-2.14.88c0,.24,0,.48,0,.72a25.43,25.43,0,0,0,3.44.42c3.85,0,7.7-.18,11.55-.22,2.7,0,4.29,1.37,4.37,3.68a4.59,4.59,0,0,1-4.11,4.72c-1.77.15-3.55,0-5.33.13a22.94,22.94,0,0,0-2.47.35l-.21.65c2,1.42,4,2.86,6.06,4.24,1.29.87,2.67,1.58,4,2.45a3.89,3.89,0,0,1,1.48,5c-1,2.12-3.48,3.59-5.35,3C530.54,162.69,529.47,162.22,528.09,161.71ZM482,178.8a6.88,6.88,0,0,0,0-2c-.18-.61-.68-1.58-1.06-1.59-1.18,0-3.28.09-3.4.56a24.45,24.45,0,0,0-.4,6.06c0,.29.88.73,1.4.82C481.36,183.17,482,182.47,482,178.8Zm21.26-20.74.52,1c1.55-.39,3.39-.42,4.56-1.32.67-.51.23-2.45.3-3.74l-.72-.24Zm15.48-4.13-1,.6c.27,1.28.15,3.09.94,3.67s2.57.15,3.91.15l.19-.77Z" transform="translate(-74.47 -127.56)"/><path class="cls-1" d="M166.88,224.37c0-1.35,0-2.7,0-4.05a40.89,40.89,0,0,1-.15-4.42c.26-3.11,1.45-4,4.68-3.86,2.53.12,3.92,1.6,4,4.29,0,2.42,0,4.85,0,7.27l.54.21a6.91,6.91,0,0,0,.84-1.21c.49-1.15.9-2.34,1.35-3.5,1.38-3.54,4.42-4.17,7.13-1.49.36.36.69.74,1,.46,3.41-.64,6.81-1.34,10.24-1.89,3.71-.61,7.45-1,11.17-1.62a4.51,4.51,0,0,1,5.44,3.57,4,4,0,0,1-3.44,5c-4.06.72-8.16,1.29-12.27,1.65-2.82.25-2.28,2.08-2.31,3.83s.76,2.61,2.69,2.56c4.66-.11,9.33,0,14-.07a3.7,3.7,0,0,1,3.79,2.52c.63,1.89.57,3.94-1.32,5.18a5.28,5.28,0,0,1-3.11.75c-2.41-.17-2.68,1.2-2.61,3,.23,6.21.47,12.42.65,18.63.09,3.19.14,6.37.09,9.55,0,2.56-1.28,3.73-3.82,3.91-3.1.22-4.62-.71-5.15-3.25a16.79,16.79,0,0,1-.35-3.07q-.3-13.09-.53-26.19c0-1.43-.23-2.37-2.07-2.32-1.61,0-1.93.66-2.05,2.12-.45,5.81-.84,11.63-1.69,17.39A23.39,23.39,0,0,1,188.38,271c-3.16,3.78-5.83,3.84-9.54.6a4.26,4.26,0,0,0-2.61-.81c-6.22,0-12.44-.08-18.66.09a6.66,6.66,0,0,1-7.2-6.77c-.2-15-.87-30-1.34-45-.07-2.33,2.22-4,4.72-3.75a31.51,31.51,0,0,0,5.13.27,3.91,3.91,0,0,1,4,2.49c1,2.15,2.09,4.3,3.13,6.46ZM185,255.52c-2-.15-3.65.08-5-.45s-2.46-1.84-4-3.1c0,3,0,5.44,0,7.9,0,1.09-.42,2.75,1.33,2.76s4.26,1,5.48-1.18A37.59,37.59,0,0,0,185,255.52Zm-17.24-3.26-1-.21c-.95,1.54-1.91,3.06-2.83,4.61a4.49,4.49,0,0,1-3.81,2.61c-.57,0-1.65,1.19-1.55,1.39.37.78,1,1.89,1.73,2a27.17,27.17,0,0,0,6,0,2,2,0,0,0,1.4-1.41C167.86,258.27,167.79,255.26,167.79,252.26Zm8.87-11.2c3.09,3.08,5.55,6,9,8.08a46.06,46.06,0,0,0,.33-7.81c0-.33-.61-.94-.91-.93C182.48,240.54,179.87,240.79,176.66,241.06Zm4.2-8.8,5.32,1c-.16-3.18-.3-6.15-.45-9.13L185,224Zm-22.51,16.16.8.17c1-1.88,2.14-3.73,3-5.67a2.93,2.93,0,0,0-.36-2c-1.27,0-3.25-1-3.6.87C157.83,243.93,158.27,246.21,158.35,248.42Zm.16-20.34-.52.1c.12,1.31-.07,2.8.5,3.87.3.55,2,.35,3.25.52C160.47,230.79,159.49,229.44,158.51,228.08Z" transform="translate(-74.47 -127.56)"/><path class="cls-1" d="M378.93,233.4h11.33c1.5,0,2.55-.37,2.51-2.26s-1.25-1.85-2.56-1.84q-10.32.07-20.66.11c-3.2,0-5-1.66-5.05-4.59,0-2.28,1.65-3.88,4.65-4,6.88-.21,13.77-.3,20.66-.33,1.8,0,2.68-.42,2.77-2.44.17-3.54,1.8-4.81,5.55-4.71,3.12.07,4.63,1.55,4.7,4.89,0,1.74.88,2.11,2.38,2.06,4.59-.16,9.18-.23,13.77-.39,3.33-.11,5.18,1.13,5.3,3.65.15,3.2-1.86,5.29-5.14,5.31-4.6,0-9.19,0-13.78.1-1.31,0-2.75,0-2.8,2,0,1.69.53,2.44,2.31,2.36,5-.22,10.07-.36,15.1-.51,3-.08,4.52,1.19,4.63,3.82.13,2.93-1.25,4.68-4.24,4.8-4.29.18-8.58.08-12.87.09-.89,0-1.78,0-2.67,0-1.7,0-2.13.81-2.32,2.46-.51,4.3.48,7,5.1,8.69,4.47,1.59,8.54,4.35,12.7,6.75,3,1.72,3.69,4.1,2.19,6.43-1.6,2.51-4.51,2.79-7.39,1.32-3.62-1.85-6.53-4.8-10.35-6.3-1.1-.43-2-.81-2.23.87-1,6.31-5.49,9-11.09,10.16a27.23,27.23,0,0,1-17.93-2c-4.48-2.22-7.31-5.65-7.46-10.9-.11-4,2-6.71,5.14-8.73,5.7-3.72,12.09-3.86,18.6-3.32.94.08,2.68,0,2.75-.35a10.11,10.11,0,0,0,0-4.1c-.07-.35-1.37-.63-2.11-.62-7.48.09-14.95.28-22.43.38-2.88,0-4.51-1.56-4.55-4.25s1.28-4.17,4-4.23c3.85-.07,7.7,0,11.55,0Zm5.59,30.93.09-.34a8.21,8.21,0,0,0,1.11,0c2.32-.33,4.77-.37,6.35-2.55,1.32-1.82,1.14-4.76-.43-5.21-4.58-1.3-9.21-1.53-13.63.53-.91.43-2,1.74-2,2.56a4.22,4.22,0,0,0,2,3.06A42.28,42.28,0,0,0,384.52,264.33Z" transform="translate(-74.47 -127.56)"/><path class="cls-1" d="M92.21,221.33c2.36,0,4.74-.05,7.1,0,1.4,0,2.15-.37,2-1.89,0-.36,0-.74,0-1.11-.07-1.87-.35-4.23,1.74-4.79a13,13,0,0,1,6.57.23c1.63.46,1.84,2.44,1.87,4.16.06,3.18.23,3.35,3.44,3.31,7.33-.08,14.65-.25,22-.33,3.54,0,5.44,2.38,4.69,5.81-.48,2.19-2.42,3.41-5.29,3.37-7.32-.1-14.64-.13-22-.3-2-.05-2.69.6-2.49,2.55.24,2.26-.49,5.31.71,6.59s4.24.67,6.48.63c6.84-.14,13.38.81,19.21,4.71,8.79,5.9,9.41,16.79,1.27,23.66-5.38,4.54-11.84,6.11-18.7,6.28-3.1.07-5.13-1.7-5.28-4.24s1.74-4.13,4.91-4.6a67.66,67.66,0,0,0,8.6-1.79c3.29-.93,5.88-4,6-6.68.11-3.05-1.88-5.53-5.44-7.05-5.07-2.17-10.37-2-15.7-1.79-1.41.06-1.61,1-1.56,2.16.17,3.7.4,7.39.42,11.09,0,8.11-2.7,10.81-10.83,10.67a31.36,31.36,0,0,1-16.56-4.74c-6.92-4.35-7.37-12.43-.75-17.69,4.7-3.73,10.17-6,15.87-7.61,1.63-.47,2.14-1.24,2-2.8-.18-2.43-.28-4.87-.37-7.31-.06-1.63-1.12-1.91-2.42-1.9-4.36.05-8.73.17-13.09.14a9.58,9.58,0,0,1-4.08-.67c-1.93-.95-2.45-2.91-2.09-4.95.38-2.19,2.09-3,4.05-3.05,2.59-.12,5.18,0,7.78,0Zm10.45,29.53c-3-.21-9.53,2.71-11.82,5-1.93,2-1.9,4.05.62,5.13a57.17,57.17,0,0,0,9.22,2.58,1.75,1.75,0,0,0,2.23-1.83C102.93,258.12,102.76,254.47,102.66,250.86Z" transform="translate(-74.47 -127.56)"/><path class="cls-1" d="M470.36,228.71c-7.93,0-15.69,0-23.45,0-3.7,0-7.4.22-11.1.26a4,4,0,0,1-4.34-4.25c-.07-3.15,1.41-5.07,4.2-5.12,9.84-.19,19.69-.31,29.53-.46,1,0,1.93-.09,2.89-.06,1.79.05,2.62-.55,2.65-2.56,0-3.2,2.07-4.95,5.11-4.86,3.21.1,5,1.76,4.95,4.95,0,1.7.57,2.21,2.19,2.12,3.62-.19,7.24-.3,10.86-.4,2-.06,3.84.49,4.73,2.56a4.81,4.81,0,0,1-.89,5.55,3.81,3.81,0,0,1-2.25,1.14c-3.91.24-7.83.35-11.75.46-2.8.07-3.26.46-3.27,3.19,0,5.76,0,11.47,1,17.22,1.5,8.1-4,17.45-12.06,21.73a43,43,0,0,1-15.05,4.88c-3.73.47-5.87-.72-6.65-3.83-.65-2.56.39-4.33,3-5,4.13-1,8.34-1.82,12.36-3.15a12,12,0,0,0,7.22-6.48l-4.45,1.77a22.7,22.7,0,0,1-16.88.2A12.9,12.9,0,0,1,440.45,248c-.78-5.3,1.4-9.6,5.57-12.75,6.19-4.68,13.29-5.3,20.69-4,.29.05.58.15.87.21C470.44,232.07,470.81,231.71,470.36,228.71Zm-12,22.56a28.44,28.44,0,0,0,4.66-.65c2.59-.82,5.2-1.76,6.58-4.45a3.41,3.41,0,0,0-1.32-4.79,14.65,14.65,0,0,0-14.19-.22c-2.14,1-3.74,3-3.35,5.52s2.33,3.8,4.85,4.14C456.53,251,457.47,251.12,458.36,251.27Z" transform="translate(-74.47 -127.56)"/><path class="cls-1" d="M129,152.49a15.7,15.7,0,0,0-3.09-.37c-8.42.53-16.84,1.15-25.26,1.68-1.34.08-1.82.57-1.78,1.88.21,6.44.27,12.88.57,19.32.16,3.65,2,5.44,6.17,5.42q13.07-.06,26.13-.7c4.31-.21,6.43.56,7.33,3.58.62,2.08-.31,4.77-2.36,5.28a42.71,42.71,0,0,1-9.77,1.49c-7.91.12-15.84,0-23.74-.32-3.63-.17-7.34-.77-10.28-3.46a10.72,10.72,0,0,1-3.3-7.74c-.37-6.87-.67-13.74-1-20.61-.13-3.11-.34-3.31-3.38-3-2,.19-4,.32-6,.36a4.44,4.44,0,0,1-4.81-4.41c-.26-2.9,1-4.7,3.91-5.08,2.41-.32,4.85-.44,7.28-.52,1.94-.06,2.57-1,2.45-2.81-.16-2.44-.21-4.88-.29-7.32a3.25,3.25,0,0,1,2.77-3.5c4-.9,8.49.11,7.89,5.75a22,22,0,0,0,.15,5.32,2.2,2.2,0,0,0,1.6,1.42c8.71-.52,17.4-1.19,26.11-1.75,2.65-.17,5.33-.17,8-.15,4.81,0,7.53,3.54,6.64,8.3a23,23,0,0,1-9.65,14.9A74.3,74.3,0,0,1,119,172.18a5,5,0,0,1-7.09-3.59c-.51-2.28.44-3.91,2.84-5.13a111.65,111.65,0,0,0,10.08-5.38c1.79-1.15,3-3.13,4.54-4.74Z" transform="translate(-74.47 -127.56)"/><path class="cls-1" d="M235.42,236.63c2.33-3.39,4.5-6.91,7-10.15,3.78-4.84,7.75-9.6,13.92-11.54,8-2.51,15.67.12,20.12,7,2.78,4.3,3.66,9.13,4,14.07.61,7.73.31,15.37-3.43,22.43a24.13,24.13,0,0,1-15.18,12.12c-6.21,1.74-12.71,2.47-19.11,3.45a17.22,17.22,0,0,1-5.49-.26,4.54,4.54,0,0,1-3.52-4.53A4.44,4.44,0,0,1,238,265c6.38-.61,12.82-.64,19-2.61,8.53-2.68,12.58-7.61,13.58-16.53.66-6,.37-11.8-1.92-17.37-2.19-5.32-7.6-6.8-12.16-3.48a17.56,17.56,0,0,0-3.65,3.21c-4.13,5.29-8.23,10.61-12.12,16.08-1.92,2.69-3.36,5.71-5,8.58a5,5,0,0,1-6.14,2.69c-2.45-.56-3.83-2.13-4-4.88a142.69,142.69,0,0,1,.47-28.33,41.49,41.49,0,0,1,.52-4.6c.54-2.41,2.66-3.41,5.84-3a4.18,4.18,0,0,1,3.86,4.14c-.23,3.75-.76,7.49-1.09,11.24-.19,2.16-.23,4.33-.35,6.49Z" transform="translate(-74.47 -127.56)"/><path class="cls-1" d="M315.15,144.94c-4.81,0-9.62,0-14.43,0a4.4,4.4,0,0,1-4.75-4.46c-.23-2.8,1.38-5.15,4.07-5.32,4.49-.28,9-.3,13.51-.35,6.34-.08,12.69-.09,19-.13,1.11,0,2.22,0,3.33,0,6.47.15,9.39,4,7.75,10.28a65.78,65.78,0,0,1-7.86,17.95c-1,1.63-.79,2.44.57,3.68,6.12,5.6,12.13,11.3,18.12,17,2.89,2.76,3.06,5,.79,7.19-2.67,2.64-6,2.52-8.57-.08-5.39-5.39-10.9-10.65-16.3-16-1.49-1.49-2.58-1.56-4.2,0a98.77,98.77,0,0,1-26,17.42c-3.69,1.74-6.67,1-8.32-1.87-1.75-3-1.18-5.11,1.95-6.66,3.37-1.67,6.88-3.06,10.16-4.88,11.15-6.2,20.32-14.42,25.82-26.2.81-1.73,1.44-3.54,2.14-5.32s0-2.32-1.7-2.31c-5,0-10.06,0-15.1,0Z" transform="translate(-74.47 -127.56)"/><path class="cls-1" d="M308.7,236.83c0,6.43-.15,12.86.05,19.28.17,5.3,2.76,7.68,8.11,7.93,7.57.36,13.94-2.6,19.54-7.41a42.48,42.48,0,0,0,9.25-11.52c1.73-3.05,4.1-4,6.76-2.87,3.11,1.33,4.17,4.06,2.42,7a53.38,53.38,0,0,1-13.52,15.65,38,38,0,0,1-16.9,7.77c-7.41,1.26-14.77,1.06-21-4.08a12.52,12.52,0,0,1-4.32-9.39c-.38-7.45-.44-14.93-.61-22.4-.13-5.7-.27-11.39-.33-17.09,0-3.31,1.89-5.38,4.82-5.41a5.38,5.38,0,0,1,5.8,5.39c.06,5.7,0,11.4,0,17.1Z" transform="translate(-74.47 -127.56)"/><path class="cls-1" d="M257.41,157.24c0,6.81-.09,13.62,0,20.43.08,3.66,1.17,4.12,4.35,2.19,7.39-4.48,11.72-11.2,14.07-19.37,1.1-3.79,3.65-5.21,7.21-4.05,2.59.85,4,3.12,3.24,5.73-3.77,12.57-10.67,22.67-23.1,28.08a25.75,25.75,0,0,1-7.7,1.74,7.09,7.09,0,0,1-8-7.31c0-4.45-.15-8.89-.25-13.33-.2-9.32-.43-18.64-.64-28,0-2.14,0-4.29-.06-6.44,0-3.44,1.35-4.89,4.69-5s5.47,1.51,5.51,4.88c.1,6.81,0,13.62,0,20.43Z" transform="translate(-74.47 -127.56)"/><path class="cls-1" d="M180.54,158.24H209c3.83,0,5.53,1.52,5.54,5,0,3.07-1.78,4.63-5.42,4.62q-28.83,0-57.66-.11c-3.24,0-4.93-1.75-4.91-4.93s1.61-4.54,5-4.54h29.08Z" transform="translate(-74.47 -127.56)"/><path class="cls-1" d="M238.52,144.41c-.1,10.29-.6,20.58-3.69,30.45-1.66,5.29-4.23,10.33-6.67,15.34a4.84,4.84,0,0,1-5.87,2.42c-3.21-.85-4.67-3.57-3.34-6.63,1.52-3.51,3.34-6.89,4.89-10.39,3.16-7.13,3.93-14.75,4.2-22.43.17-4.8.2-9.61.27-14.42.05-3.38,1.64-5,5-5s5.11,1.64,5.16,4.91C238.54,140.57,238.52,142.49,238.52,144.41Z" transform="translate(-74.47 -127.56)"/><path class="cls-1" d="M375.67,193.93a10.6,10.6,0,0,1-2.36-1.51c-4.06-4.08-8-8.23-12-12.36a4,4,0,0,1-.6-5.37c1.28-1.92,3.92-3.09,5.7-2.42a5.86,5.86,0,0,1,2.09,1.2c4,4,8,8.06,11.83,12.24a4.42,4.42,0,0,1,.95,5.31C380.2,193,378.48,193.75,375.67,193.93Z" transform="translate(-74.47 -127.56)"/><path class="cls-1" d="M480.6,129.36c2.29,0,4.58,0,6.87,0s4,1.54,3.91,3.82c-.09,2.59-.67,4-3.71,4.09l-15.49.4c-1.67,0-3.09-.27-3.48-2.26-.48-2.41.24-4.52,2.07-5.3a10.31,10.31,0,0,1,3-.65c1.17-.11,2.36,0,3.54,0h3.32Z" transform="translate(-74.47 -127.56)"/><path class="cls-1" d="M140.53,241.93c-.51-.11-1.52-.29-2.52-.54-3.49-.87-7-1.74-10.47-2.65-2.56-.66-3.72-2.42-3.27-4.88.36-2,1.94-3.18,4.52-2.71,4.54.82,9.06,1.82,13.53,2.94a3.85,3.85,0,0,1,2.84,4.63C144.78,240.79,143.34,241.91,140.53,241.93Z" transform="translate(-74.47 -127.56)"/><path class="cls-1" d="M478.16,156.41c-2.36,0-4.72,0-7.08,0s-2.27-1.7-2.3-3.22-.09-3,2.15-3.08c6-.16,12.08-.47,18.13-.56a2.87,2.87,0,0,1,2,1.54c.65,1.45.48,3.12-1.12,3.8a15.84,15.84,0,0,1-4.9,1c-2.28.16-4.57,0-6.86,0Z" transform="translate(-74.47 -127.56)"/><path class="cls-1" d="M272.07,451.26c1.22-4,2.15-8.08,3.72-11.91,2.53-6.18,6-11.86,11.19-16.21a16.89,16.89,0,0,1,6.55-3.26c2.7-.68,4.67,1.23,5.32,4,.86,3.68.13,7.17-1,10.61a50.72,50.72,0,0,1-13.23,21.11,28.52,28.52,0,0,1-3.35,2.49c-3.65,2.58-8,.37-8.56-4.43a20.54,20.54,0,0,1,0-2.22Z" transform="translate(-74.47 -127.56)"/><path class="cls-1" d="M273.3,515.9a12.11,12.11,0,0,1-2.42-.16c-.52-.14-1.3-.62-1.33-1a1.83,1.83,0,0,1,.88-1.53c3.64-1.26,7.32-2.47,11-3.52a3,3,0,0,1,2.21.7c0,1-.21,2.54-.82,2.82a58.25,58.25,0,0,1-7.37,2.54A9.88,9.88,0,0,1,273.3,515.9Z" transform="translate(-74.47 -127.56)"/></svg>